<mxfile host="" modified="2020-07-02T14:58:27.627Z" agent="5.0 (Windows NT 10.0; Win64; x64) AppleWebKit/537.36 (KHTML, like Gecko) Code/1.46.1 Chrome/78.0.3904.130 Electron/7.3.1 Safari/537.36" etag="dIkzwCR3VYR-HbocvOEn" version="13.1.3">
    <diagram id="6hGFLwfOUW9BJ-s0fimq" name="Page-1">
        <mxGraphModel dx="1150" dy="798" grid="1" gridSize="10" guides="1" tooltips="1" connect="1" arrows="1" fold="1" page="1" pageScale="1" pageWidth="827" pageHeight="1169" math="0" shadow="0">
            <root>
                <mxCell id="0"/>
                <mxCell id="1" parent="0"/>
                <mxCell id="11" style="edgeStyle=orthogonalEdgeStyle;rounded=0;orthogonalLoop=1;jettySize=auto;html=1;exitX=1;exitY=0.5;exitDx=0;exitDy=0;" parent="1" source="6" target="8" edge="1">
                    <mxGeometry relative="1" as="geometry"/>
                </mxCell>
                <mxCell id="14" value="Padding" style="edgeLabel;html=1;align=center;verticalAlign=middle;resizable=0;points=[];fontSize=14;" parent="11" vertex="1" connectable="0">
                    <mxGeometry x="-0.35" y="-1" relative="1" as="geometry">
                        <mxPoint x="-30.34" y="-11" as="offset"/>
                    </mxGeometry>
                </mxCell>
                <mxCell id="13" value="" style="edgeStyle=orthogonalEdgeStyle;rounded=0;orthogonalLoop=1;jettySize=auto;exitX=1;exitY=0.5;exitDx=0;exitDy=0;entryX=0;entryY=0.5;entryDx=0;entryDy=0;" parent="1" source="6" target="9" edge="1">
                    <mxGeometry relative="1" as="geometry"/>
                </mxCell>
                <mxCell id="6" value="PormiseA+" style="shape=ext;double=1;rounded=0;whiteSpace=wrap;html=1;fillColor=none;fontSize=18;" parent="1" vertex="1">
                    <mxGeometry x="40" y="370" width="120" height="80" as="geometry"/>
                </mxCell>
                <mxCell id="8" value="fulfilled" style="shape=ext;double=1;rounded=0;whiteSpace=wrap;html=1;fillColor=none;fontSize=18;" parent="1" vertex="1">
                    <mxGeometry x="500" y="310" width="120" height="80" as="geometry"/>
                </mxCell>
                <mxCell id="9" value="reject" style="shape=ext;double=1;rounded=0;whiteSpace=wrap;html=1;fillColor=none;fontSize=18;" parent="1" vertex="1">
                    <mxGeometry x="500" y="440" width="120" height="80" as="geometry"/>
                </mxCell>
            </root>
        </mxGraphModel>
    </diagram>
</mxfile>